<?xml version="1.0" encoding="UTF-8"?>
<svg width="700pt" height="700pt" version="1.1" viewBox="0 0 700 700" xmlns="http://www.w3.org/2000/svg" xmlns:xlink="http://www.w3.org/1999/xlink">
 <g>
  <path d="m501.67 175c3.0938 0 6.0586-1.2305 8.25-3.418 2.1875-2.1875 3.4141-5.1562 3.4141-8.25v-46.664c0-3.0938-1.2266-6.0625-3.4141-8.25-2.1914-2.1875-5.1562-3.418-8.25-3.418h-50.75c-3.3008-6.9609-8.5039-12.844-15.008-16.973s-14.039-6.332-21.742-6.3594c-6.0781 0.0625-12.059 1.5-17.5 4.1992-0.29297-14.59-8.3438-27.914-21.125-34.953-12.781-7.043-28.344-6.7305-40.832 0.81641-12.488 7.5469-20.004 21.18-19.711 35.77v17.5h-105c-6.4414 0-11.668 5.2227-11.668 11.668v46.668-0.003907c0 3.0938 1.2305 6.0625 3.418 8.25s5.1562 3.418 8.25 3.418h105v15.75c-9.0312-4.4297-19.391-5.3164-29.043-2.4883-9.6523 2.8281-17.895 9.168-23.105 17.773-8.1602-5.8789-18.203-8.5312-28.199-7.4453-9.9961 1.0859-19.234 5.832-25.941 13.324-6.7031 7.4922-10.402 17.199-10.379 27.254v87.5c0 38.852 12.484 84.234 46.668 101.15v73.852c0 3.0938 1.2305 6.0586 3.418 8.25 2.1875 2.1875 5.1562 3.4141 8.25 3.4141h186.66c3.0938 0 6.0625-1.2266 8.25-3.4141 2.1875-2.1914 3.418-5.1562 3.418-8.25v-65.219l29.051-29.051c18.578-18.195 29.121-43.059 29.281-69.066v-32.199c0-13.117-5.2109-25.699-14.488-34.977s-21.859-14.488-34.977-14.488h-8.8672v-81.668zm-163.34-87.5c0-6.2539 3.3359-12.031 8.75-15.156 5.4141-3.125 12.086-3.125 17.5 0 5.4141 3.125 8.75 8.9023 8.75 15.156v17.5h-35zm35 40.832v23.332l-140 0.003907v-23.336zm-93.332 99.168c0-6.2539 3.3359-12.031 8.75-15.156s12.086-3.125 17.5 0 8.75 8.9023 8.75 15.156v58.332c0 6.2539-3.3359 12.031-8.75 15.156s-12.086 3.125-17.5 0-8.75-8.9023-8.75-15.156zm-58.332 11.668c0-6.2539 3.3359-12.031 8.75-15.156 5.4141-3.125 12.086-3.125 17.5 0 5.4141 3.125 8.75 8.9023 8.75 15.156v46.668-0.003907c0 6.2539-3.3359 12.031-8.75 15.156-5.4141 3.125-12.086 3.125-17.5 0-5.4141-3.125-8.75-8.9023-8.75-15.156zm260.63 48.535v-0.003906c4.9258 4.8672 7.6992 11.508 7.6992 18.434v32.199c-0.30859 19.828-8.3477 38.75-22.398 52.734l-32.551 32.551c-2.1289 2.1445-3.3398 5.0312-3.3828 8.0508v58.332h-163.34v-70c0.015625-5.0156-3.1797-9.4766-7.9336-11.082-27.066-8.8672-38.73-47.25-38.73-82.25v-4.0859c7.6523 3.7344 16.293 4.9453 24.68 3.457 8.3867-1.4883 16.082-5.5977 21.984-11.738 7.5742 7.8398 17.977 12.312 28.875 12.426 10.898 0.10938 21.391-4.1562 29.117-11.844 7.7305-7.6836 12.055-18.148 12.008-29.051v-110.83h35v82.25c-11.727 1.6836-22.137 8.3906-28.52 18.371-6.3789 9.9805-8.0977 22.246-4.7031 33.598 3.3945 11.348 11.562 20.656 22.375 25.496-5.3789 5.8086-9.6133 12.578-12.484 19.953l-10.383 26.016c-1.1484 2.8789-1.1055 6.0938 0.12109 8.9375 1.2266 2.8438 3.5312 5.0859 6.4102 6.2305 2.8789 1.1445 6.0938 1.1016 8.9414-0.125 2.8438-1.2227 5.0859-3.5312 6.2266-6.4102l10.383-26.016c2.9023-7.3555 7.9453-13.668 14.477-18.121 6.5312-4.4492 14.254-6.8359 22.156-6.8477h35c6.4453 0 11.668-5.2227 11.668-11.664 0-6.4453-5.2227-11.668-11.668-11.668h-64.164c-6.2539 0-12.031-3.3359-15.156-8.75s-3.125-12.086 0-17.5 8.9023-8.75 15.156-8.75h84.699c6.9258 0 13.566 2.7734 18.434 7.6992zm-85.633-31.035v-134.17c0-6.2539 3.3359-12.031 8.75-15.156 5.4141-3.125 12.086-3.125 17.5 0 5.4141 3.125 8.75 8.9023 8.75 15.156v134.17z"/>
  <path d="m210 93.332c3.1016 0.019531 6.082-1.1992 8.2852-3.3828l11.668-11.668-0.003906 0.003906c5.2812-5.2773 8.2461-12.43 8.2461-19.895 0-7.4609-2.9648-14.617-8.2461-19.891-0.93359-0.90234-1.4609-2.1445-1.4609-3.4414s0.52734-2.5391 1.4609-3.4414l11.668-11.668c4.5742-4.5742 4.5742-11.992 0-16.566-4.5742-4.5742-11.992-4.5742-16.566 0l-11.668 11.668c-5.2773 5.2734-8.2461 12.43-8.2461 19.891 0 7.4609 2.9688 14.617 8.2461 19.891 0.93359 0.90234 1.4609 2.1445 1.4609 3.4414 0 1.3008-0.52734 2.543-1.4609 3.4414l-11.668 11.668c-3.3633 3.3398-4.375 8.3789-2.5586 12.758 1.8203 4.3789 6.1055 7.2188 10.844 7.1914z"/>
  <path d="m157.5 70c-3.2227 0-5.832-2.6133-5.832-5.832v-17.5c0-6.4453-5.2266-11.668-11.668-11.668s-11.668 5.2227-11.668 11.668v17.5c0 7.7344 3.0742 15.152 8.543 20.621 5.4727 5.4727 12.891 8.543 20.625 8.543 1.5469 0 3.0312 0.61719 4.125 1.7109s1.707 2.5781 1.707 4.125v5.832c0 6.4414 5.2266 11.668 11.668 11.668s11.668-5.2266 11.668-11.668v-5.832c0-7.7383-3.0742-15.156-8.543-20.625-5.4727-5.4688-12.891-8.543-20.625-8.543z"/>
  <use x="70" y="735" xlink:href="#f"/>
  <use x="220.503906" y="735" xlink:href="#e"/>
  <use x="287.953125" y="735" xlink:href="#a"/>
  <use x="350.015625" y="735" xlink:href="#d"/>
  <use x="450.105469" y="735" xlink:href="#c"/>
  <use x="540.65625" y="735" xlink:href="#a"/>
  <use x="683.609375" y="735" xlink:href="#b"/>
 </g>
</svg>
